<svg xmlns="http://www.w3.org/2000/svg" viewBox="0 0 512 512" fill="#7c4dff">
  <circle cx="256" cy="180" r="120" opacity="0.3"/>
  <path d="M256 80c-66.3 0-120 53.7-120 120s53.7 120 120 120 120-53.7 120-120S322.3 80 256 80zm0 200c-44.2 0-80-35.8-80-80s35.8-80 80-80 80 35.8 80 80-35.8 80-80 80z"/>
  <path d="M256 320c-88.4 0-160 71.6-160 160v32h320v-32c0-88.4-71.6-160-160-160zm120 152H136v-12c0-66.3 53.7-120 120-120s120 53.7 120 120v12z"/>
  <circle cx="200" cy="180" r="20"/>
  <circle cx="312" cy="180" r="20"/>
  <path d="M256 220c-22.1 0-40 17.9-40 40h80c0-22.1-17.9-40-40-40z"/>
</svg>